<?xml version="1.0" standalone="no"?>
<!DOCTYPE svg PUBLIC "-//W3C//DTD SVG 20010904//EN"
 "http://www.w3.org/TR/2001/REC-SVG-20010904/DTD/svg10.dtd">
<svg version="1.0" xmlns="http://www.w3.org/2000/svg"
 width="1024.000000pt" height="1024.000000pt" viewBox="0 0 1024.000000 1024.000000"
 preserveAspectRatio="xMidYMid meet">
<metadata>
Created by potrace 1.16, written by Peter Selinger 2001-2019
</metadata>
<g transform="translate(0.000000,1024.000000) scale(0.100000,-0.100000)"
fill="#000000" stroke="none">
<path d="M2090 9000 c-13 -13 -20 -33 -20 -57 0 -34 16 -53 303 -342 l302
-306 -630 -5 c-685 -5 -659 -3 -695 -63 -19 -31 -20 -58 -20 -870 0 -759 2
-842 16 -867 37 -62 17 -60 638 -60 l566 0 0 -59 0 -59 -191 -4 -191 -3 -24
-28 c-13 -15 -24 -39 -24 -53 0 -32 24 -79 47 -90 21 -10 1161 -18 1212 -9 71
13 105 93 63 145 -24 30 -82 39 -269 39 l-153 1 0 60 0 60 564 0 c343 0 575 4
590 10 14 5 35 24 46 42 19 32 20 51 20 879 l0 846 -22 28 c-44 56 -35 55
-700 55 l-613 0 313 313 c280 280 312 316 312 345 0 44 -30 72 -77 72 -35 0
-52 -15 -345 -307 l-308 -308 -308 308 c-293 292 -310 307 -345 307 -24 0 -44
-7 -57 -20z m1808 -954 c47 -16 100 -72 112 -117 7 -24 10 -238 8 -598 l-3
-559 -30 -38 c-17 -20 -46 -45 -65 -56 -34 -17 -78 -18 -1142 -16 l-1106 3
-39 31 c-76 60 -72 32 -73 659 -1 308 2 569 6 580 14 41 58 88 98 106 39 18
87 19 1121 18 813 0 1088 -3 1113 -13z"/>
<path d="M5199 8251 l-29 -29 0 -762 0 -761 24 -24 c29 -29 84 -45 154 -45
l52 0 0 -35 c0 -65 22 -75 160 -75 138 0 160 10 160 75 l0 35 699 0 698 0 6
-42 c8 -62 22 -68 162 -68 144 0 165 9 165 71 l0 39 43 0 c80 1 130 16 159 49
l28 31 0 756 0 756 -29 29 -29 29 -1197 0 -1197 0 -29 -29z m1638 -313 l23
-21 0 -454 c0 -440 -1 -454 -20 -473 -20 -20 -33 -20 -702 -20 -620 0 -683 1
-700 17 -17 15 -18 43 -18 479 l0 463 22 15 c20 14 103 16 697 16 l675 0 23
-22z m526 8 c66 -28 113 -110 102 -176 -23 -136 -175 -191 -280 -99 -111 98
-40 288 108 289 21 0 52 -6 70 -14z m29 -541 c89 -67 99 -183 23 -260 -44 -43
-100 -60 -155 -45 -148 40 -178 221 -50 308 29 20 45 23 95 20 40 -2 69 -10
87 -23z"/>
<path d="M3914 6246 c-17 -8 -40 -26 -52 -41 l-22 -28 0 -613 0 -614 1040 0
1040 0 0 614 0 613 -22 28 c-45 57 -7 55 -1020 55 -758 -1 -939 -3 -964 -14z
m291 -421 l25 -24 0 -286 0 -286 -25 -24 c-29 -30 -64 -32 -96 -6 l-24 19 0
297 0 297 24 19 c32 26 67 24 96 -6z"/>
<path d="M6643 6210 c-17 -10 -36 -28 -42 -38 -6 -12 -11 -131 -11 -312 l-1
-292 1095 -2 1096 -1 0 288 c0 238 -3 293 -15 317 -33 63 25 60 -1082 60 -980
0 -1009 -1 -1040 -20z m647 -260 c13 -13 20 -33 20 -60 0 -27 -7 -47 -20 -60
-19 -19 -33 -20 -214 -20 l-195 0 -20 26 c-12 15 -21 39 -21 54 0 15 9 39 21
54 l20 26 195 0 c181 0 195 -1 214 -20z m917 0 c60 -36 52 -119 -14 -146 -29
-13 -37 -12 -63 1 -58 30 -67 90 -21 136 35 34 54 36 98 9z m351 -16 c12 -14
22 -34 22 -44 0 -59 -68 -112 -112 -89 -45 23 -58 41 -58 80 0 30 6 43 32 64
38 32 81 29 116 -11z"/>
<path d="M2188 5829 c-157 -17 -313 -89 -435 -203 -182 -170 -263 -354 -263
-601 0 -205 32 -294 187 -522 112 -165 147 -243 175 -384 19 -100 26 -118 54
-146 l32 -33 342 0 c435 0 417 -7 444 162 24 150 59 229 186 418 141 211 170
294 170 494 0 242 -80 437 -242 592 -188 180 -394 251 -650 223z"/>
<path d="M6590 4539 l5 -911 37 -34 38 -34 1015 0 1015 0 38 34 37 34 3 911 2
911 -1097 0 -1098 0 5 -911z m1264 661 c125 -32 208 -81 311 -184 74 -74 99
-107 132 -176 57 -115 73 -186 73 -315 0 -129 -16 -200 -73 -315 -32 -67 -58
-102 -122 -165 -92 -92 -177 -145 -289 -181 -239 -75 -476 -19 -672 159 -292
267 -296 741 -9 1006 53 49 163 122 220 146 116 48 296 59 429 25z"/>
<path d="M7595 5000 c-164 -33 -295 -142 -356 -298 -20 -48 -23 -76 -24 -182
0 -120 1 -127 32 -193 139 -293 529 -370 764 -150 201 188 200 505 -2 698
-112 107 -268 154 -414 125z"/>
<path d="M3840 4205 c0 -505 2 -610 14 -633 8 -15 42 -54 76 -87 34 -33 84
-87 110 -121 l49 -61 113 -6 c125 -6 205 -27 298 -80 76 -42 190 -159 223
-227 24 -50 31 -83 56 -265 l6 -50 356 -3 356 -2 5 -51 c3 -27 10 -55 15 -60
17 -17 86 -29 131 -23 51 7 72 33 72 85 0 36 0 36 52 43 64 9 100 27 127 65
21 29 21 32 21 1055 l0 1026 -1040 0 -1040 0 0 -605z m365 350 l25 -24 0 -326
0 -326 -25 -24 c-30 -30 -64 -32 -99 -4 l-26 20 0 330 0 330 25 24 c13 14 36
25 50 25 14 0 37 -11 50 -25z"/>
<path d="M1942 3853 c-31 -12 -42 -61 -42 -183 0 -121 0 -122 29 -151 17 -17
40 -29 55 -29 19 0 30 -9 45 -37 23 -47 52 -74 111 -104 38 -21 59 -24 141
-24 84 1 102 4 153 29 56 27 116 91 116 123 0 8 12 13 31 13 20 0 40 10 60 29
29 29 29 30 29 153 0 105 -3 128 -20 156 l-20 32 -337 -1 c-186 0 -344 -3
-351 -6z"/>
<path d="M3383 3580 c-44 -26 -65 -72 -71 -151 l-4 -66 -57 -13 c-71 -15 -163
-59 -224 -105 -76 -58 -124 -163 -81 -179 9 -3 209 -6 445 -6 l429 0 0 -40 0
-40 -635 0 -635 0 0 -24 c0 -14 47 -120 105 -236 58 -117 105 -223 105 -238 0
-16 -13 -127 -29 -248 -42 -308 -64 -548 -56 -597 9 -53 26 -85 62 -119 62
-59 45 -58 725 -58 l623 1 45 23 c26 13 58 41 75 65 29 42 30 46 33 181 l3
139 49 31 c97 62 205 201 277 358 41 88 70 218 79 353 16 239 -86 430 -283
530 l-67 34 -177 0 -176 0 -52 48 c-59 55 -163 108 -247 126 l-59 13 -2 53
c-2 75 -19 119 -59 155 -42 36 -93 40 -141 10z m892 -679 c51 -23 78 -53 107
-116 63 -138 -5 -448 -128 -585 -20 -22 -40 -40 -44 -40 -4 0 -14 44 -23 98
-9 53 -33 187 -52 297 -36 208 -45 349 -22 358 30 13 124 5 162 -12z"/>
<path d="M6578 3261 l-33 -29 -3 -241 -3 -241 -94 0 c-103 0 -138 -9 -154 -38
-10 -19 -15 -87 -12 -164 1 -43 32 -78 68 -78 22 0 23 -3 23 -77 1 -156 48
-289 138 -386 26 -27 91 -79 145 -114 95 -64 97 -66 97 -104 0 -62 24 -108 60
-115 l30 -6 0 -110 c0 -102 2 -110 24 -133 32 -32 69 -40 107 -25 47 20 59 55
59 170 0 98 0 100 23 100 36 0 55 29 64 97 l8 61 107 70 c121 80 173 138 223
247 40 86 54 143 62 246 5 68 9 79 24 79 11 0 28 9 39 20 17 17 20 33 20 113
-1 133 -17 147 -164 147 l-96 0 0 230 c0 187 -3 237 -15 260 -18 35 -43 50
-85 50 -42 0 -67 -15 -85 -50 -12 -23 -15 -73 -15 -260 l0 -230 -195 0 -195 0
0 225 c0 181 -3 232 -15 255 -34 66 -103 79 -157 31z"/>
</g>
</svg>
