<?xml version="1.0" standalone="no"?>
<!DOCTYPE svg PUBLIC "-//W3C//DTD SVG 20010904//EN"
 "http://www.w3.org/TR/2001/REC-SVG-20010904/DTD/svg10.dtd">
<svg version="1.0" xmlns="http://www.w3.org/2000/svg"
 width="1024.000000pt" height="1024.000000pt" viewBox="0 0 1024.000000 1024.000000"
 preserveAspectRatio="xMidYMid meet">

<g transform="translate(0.000000,1024.000000) scale(0.100000,-0.100000)"
fill="#000000" stroke="none">
<path d="M2605 7543 c-282 -14 -801 -69 -925 -99 -36 -9 -108 -36 -160 -62
-78 -38 -109 -60 -175 -127 -90 -90 -135 -160 -172 -265 -20 -60 -29 -121 -49
-354 -24 -278 -39 -432 -91 -946 -27 -265 -27 -266 -30 -1235 l-4 -970 23 -45
c35 -68 64 -79 217 -87 l131 -6 0 -221 c0 -201 2 -225 21 -266 25 -56 53 -86
104 -113 56 -30 265 -37 331 -12 63 24 103 61 130 120 23 48 24 60 24 273 l0
222 1010 0 1010 0 0 -227 c0 -255 5 -277 71 -340 52 -49 104 -63 238 -63 101
0 123 3 167 24 58 27 106 80 123 135 7 24 11 121 11 253 l0 215 132 7 c143 7
173 17 212 69 21 28 21 31 24 965 2 786 0 964 -13 1102 -8 91 -27 296 -40 455
-14 160 -32 355 -40 435 -8 80 -19 217 -25 305 -13 203 -29 279 -81 385 -34
69 -59 102 -133 175 -105 105 -205 163 -333 195 -128 32 -573 81 -907 100
-159 9 -645 11 -801 3z m1146 -376 c90 -60 88 -181 -4 -237 -31 -19 -56 -20
-747 -20 -798 0 -759 -3 -808 70 -19 28 -23 44 -19 83 4 50 23 78 72 108 28
18 67 19 751 19 l721 0 34 -23z m630 -538 c47 -16 93 -52 119 -94 27 -43 27
-47 91 -683 56 -556 56 -558 4 -614 -14 -15 -42 -32 -62 -37 -26 -7 -530 -11
-1548 -11 -1397 1 -1514 2 -1560 18 -65 22 -95 65 -95 135 0 39 72 733 115
1114 8 64 54 137 105 164 33 18 90 19 1416 19 1006 0 1390 -3 1415 -11z m63
-2024 c61 -29 114 -83 148 -153 29 -58 33 -77 33 -142 -1 -129 -66 -234 -180
-291 -60 -29 -70 -31 -147 -27 -134 7 -219 65 -277 188 -37 79 -37 183 2 262
33 68 91 129 149 159 77 39 194 41 272 4z m-2626 -4 c59 -30 120 -96 150 -161
20 -43 26 -71 26 -130 0 -90 -22 -147 -85 -215 -69 -74 -118 -98 -215 -103
-71 -4 -89 -1 -136 20 -74 34 -119 76 -159 150 -31 58 -34 70 -34 148 0 68 5
94 23 131 36 72 87 125 155 159 58 30 67 31 147 28 62 -3 96 -10 128 -27z"/>
<path d="M7200 7124 c-333 -29 -509 -74 -734 -188 -252 -128 -468 -294 -624
-481 -251 -299 -400 -631 -448 -995 -20 -153 -15 -499 9 -625 93 -490 328
-888 702 -1190 192 -155 375 -256 597 -330 311 -104 681 -123 1033 -54 452 88
884 364 1165 744 259 350 380 723 380 1174 1 335 -69 629 -212 901 -293 554
-822 933 -1431 1024 -100 15 -357 27 -437 20z m423 -319 c639 -115 1155 -591
1311 -1211 82 -326 71 -628 -34 -945 -183 -551 -639 -964 -1210 -1095 -353
-81 -731 -41 -1055 111 -504 236 -856 711 -940 1270 -19 129 -19 355 0 495 69
493 372 928 826 1187 169 96 418 179 610 202 112 13 383 6 492 -14z"/>
<path d="M6672 6283 c-30 -59 -101 -274 -322 -973 -67 -212 -151 -476 -186
-587 l-65 -203 -64 0 -65 0 0 -130 0 -130 385 0 385 0 0 130 0 130 -75 0 c-41
0 -75 2 -75 5 0 3 34 116 76 252 42 137 88 288 103 337 l27 90 106 -205 c245
-473 398 -739 428 -739 28 0 177 264 381 676 76 155 145 286 152 293 16 12 34
-45 146 -455 33 -121 63 -228 67 -237 5 -15 -3 -17 -65 -17 l-71 0 0 -130 0
-130 370 0 370 0 0 130 0 130 -65 0 c-61 0 -66 2 -75 26 -12 30 -167 523 -359
1139 -179 576 -204 650 -222 650 -15 0 -231 -409 -436 -825 -132 -269 -192
-380 -204 -380 -6 0 -93 177 -343 700 -155 323 -248 502 -264 508 -6 2 -24
-23 -40 -55z"/>
</g>
</svg>
