<?xml version="1.0" standalone="no"?>
<!DOCTYPE svg PUBLIC "-//W3C//DTD SVG 20010904//EN"
 "http://www.w3.org/TR/2001/REC-SVG-20010904/DTD/svg10.dtd">
<svg version="1.0" xmlns="http://www.w3.org/2000/svg"
 width="1024.000000pt" height="1024.000000pt" viewBox="0 0 1024.000000 1024.000000"
 preserveAspectRatio="xMidYMid meet">

<g transform="translate(0.000000,1024.000000) scale(0.100000,-0.100000)"
fill="#000000" stroke="none">
<path d="M3225 7819 c-181 -20 -323 -87 -445 -209 -99 -100 -130 -159 -395
-740 -119 -261 -220 -478 -224 -482 -3 -4 -31 -3 -61 2 -30 5 -125 13 -210 16
-122 5 -173 3 -240 -10 -156 -29 -274 -111 -300 -208 -17 -62 -7 -166 20 -224
33 -69 131 -162 215 -206 63 -33 94 -43 187 -62 l27 -6 -41 -73 c-151 -264
-214 -465 -238 -752 -31 -389 -50 -1422 -31 -1800 17 -356 44 -470 131 -549
101 -91 197 -111 550 -110 403 0 515 24 610 131 65 75 72 110 77 418 4 186 9
272 17 277 6 4 1017 8 2247 8 1778 0 2239 -3 2246 -12 6 -7 13 -100 17 -206
10 -305 33 -423 98 -497 87 -99 193 -120 588 -119 349 1 450 20 550 103 120
99 147 365 136 1351 -12 1139 -33 1283 -242 1702 -35 70 -64 130 -64 133 0 3
14 5 30 5 85 0 237 77 314 160 92 98 130 243 92 345 -30 77 -119 145 -241 181
-67 20 -326 26 -486 11 l-86 -8 -16 38 c-32 80 -378 826 -436 939 -73 145 -85
163 -158 237 -117 119 -276 194 -458 216 -110 13 -3657 13 -3780 0z m3687
-340 c151 -31 265 -130 347 -302 27 -56 99 -226 159 -377 321 -808 327 -828
303 -903 -17 -49 -81 -103 -139 -116 -124 -28 -3072 -36 -4532 -12 l-405 6
-44 25 c-30 17 -52 40 -69 70 -45 84 -39 107 182 661 240 600 312 753 390 828
59 55 155 106 227 120 68 14 3516 13 3581 0z m-4333 -2508 c83 -26 137 -60
198 -123 58 -63 87 -114 108 -195 55 -210 -45 -422 -243 -516 -64 -30 -73 -32
-187 -32 -114 0 -123 2 -187 32 -123 58 -204 154 -240 282 -42 154 -1 316 113
436 112 118 284 164 438 116z m5333 -1 c321 -99 424 -521 183 -749 -82 -77
-165 -113 -280 -119 -75 -4 -106 -1 -162 16 -314 96 -415 482 -191 727 116
127 288 175 450 125z m-1022 -310 c19 -19 20 -33 20 -359 l0 -340 -26 -20 -27
-21 -1738 0 c-1726 0 -1739 0 -1759 20 -19 19 -20 33 -20 364 l0 345 22 15
c20 14 204 16 1765 16 1730 0 1743 0 1763 -20z"/>
</g>
</svg>
