<?xml version="1.0" standalone="no"?>
<!DOCTYPE svg PUBLIC "-//W3C//DTD SVG 20010904//EN"
 "http://www.w3.org/TR/2001/REC-SVG-20010904/DTD/svg10.dtd">
<svg version="1.0" xmlns="http://www.w3.org/2000/svg"
 width="512.000000pt" height="512.000000pt" viewBox="0 0 512.000000 512.000000"
 preserveAspectRatio="xMidYMid meet">

<g transform="translate(0.000000,512.000000) scale(0.100000,-0.100000)"
fill="#000000" stroke="none">
<path d="M930 4948 c-44 -24 -53 -58 -41 -153 40 -294 236 -522 521 -606 66
-19 108 -22 350 -28 l274 -6 23 -70 c22 -69 22 -79 21 -565 0 -334 -3 -471 -9
-420 -65 557 -509 991 -1076 1050 -138 15 -172 3 -188 -62 -6 -22 -1 -33 23
-58 28 -27 36 -30 99 -30 88 0 227 -29 328 -69 240 -93 442 -277 555 -505 27
-56 52 -114 56 -131 l7 -30 -34 28 c-236 191 -452 280 -731 302 l-87 7 -31
-30 c-37 -38 -38 -65 -2 -101 25 -26 35 -28 127 -34 247 -14 486 -126 669
-310 l81 -82 -290 -3 c-179 -2 -320 1 -370 8 -362 52 -678 301 -815 644 -32
79 -69 229 -70 279 l0 27 131 0 131 0 30 30 c24 25 29 36 23 58 -3 15 -15 36
-26 47 -18 19 -33 20 -209 20 -184 0 -190 -1 -212 -23 -21 -21 -23 -31 -20
-113 12 -444 305 -863 727 -1040 197 -82 324 -99 758 -99 l315 0 20 -47 c36
-85 61 -169 77 -258 12 -73 15 -205 15 -782 l0 -695 -47 35 c-62 45 -135 140
-164 214 -45 117 -35 293 22 391 33 57 21 114 -28 133 -62 23 -115 -40 -159
-187 -27 -90 -26 -268 3 -359 65 -206 244 -376 449 -430 75 -19 230 -19 314 1
175 41 340 172 419 334 91 187 92 390 0 572 -45 89 -96 112 -144 63 -31 -31
-32 -65 -1 -118 62 -107 74 -279 27 -400 -29 -74 -102 -169 -163 -214 l-48
-35 0 985 c0 833 2 997 15 1063 17 92 37 156 72 237 l26 57 229 0 c126 0 272
5 325 11 426 47 769 334 887 743 34 116 51 277 34 313 -25 53 -36 54 -378 49
-345 -5 -379 -9 -540 -69 -137 -52 -240 -119 -350 -227 -54 -52 -116 -124
-140 -159 -87 -130 -149 -296 -169 -453 -6 -40 -9 87 -10 353 -1 478 -3 491
-76 564 -83 84 -208 94 -303 25 -51 -37 -80 -85 -95 -159 l-13 -60 -28 35
c-35 44 -133 117 -208 155 -69 35 -180 66 -270 75 -65 6 -68 5 -98 -24 -33
-33 -36 -48 -19 -85 14 -31 48 -47 102 -47 93 0 246 -61 327 -131 l35 -30
-220 4 c-211 3 -223 4 -287 29 -178 70 -308 214 -352 388 l-13 55 239 3 c192
2 251 -1 300 -14 80 -20 162 -62 218 -111 61 -54 86 -66 121 -58 29 7 59 47
59 79 0 41 -144 157 -255 205 -108 48 -154 53 -470 58 -235 3 -305 1 -325 -9z
m1445 -493 l25 -24 0 -1696 0 -1695 -80 0 -80 0 0 1695 0 1696 25 24 c15 16
36 25 55 25 19 0 40 -9 55 -25z m1625 -77 c0 -46 -41 -192 -74 -262 -109 -237
-312 -411 -566 -487 -67 -20 -103 -23 -329 -27 l-254 -4 41 50 c72 86 206 190
317 245 127 63 300 107 422 107 58 0 67 3 94 29 37 37 37 65 -1 103 l-30 30
-88 -7 c-265 -21 -530 -127 -705 -282 -22 -19 -41 -32 -44 -30 -2 3 8 29 23
59 130 257 350 428 624 483 43 9 152 13 318 14 l252 1 0 -22z"/>
<path d="M4775 3910 c-33 -13 -39 -26 -100 -208 -31 -96 -61 -170 -66 -165 -4
4 -41 51 -81 103 -41 52 -86 101 -100 110 -24 13 -30 13 -61 -2 -34 -16 -36
-21 -121 -275 -47 -142 -86 -268 -86 -281 0 -29 42 -72 70 -72 12 0 34 7 50
15 25 13 35 34 85 187 32 95 60 176 64 180 4 4 41 -40 84 -97 88 -120 111
-136 161 -112 33 15 36 22 122 279 95 287 97 305 44 333 -32 17 -37 17 -65 5z"/>
<path d="M4210 2947 c-41 -21 -50 -52 -50 -183 l0 -122 -56 -4 c-39 -3 -61
-11 -77 -27 -22 -21 -22 -27 -22 -309 0 -327 6 -361 74 -452 71 -95 155 -143
284 -165 l37 -6 0 -581 c0 -573 0 -581 -21 -618 -57 -102 -215 -106 -275 -7
-18 30 -19 62 -24 452 -7 488 -6 482 -99 576 -65 64 -119 87 -228 96 l-72 6
-3 133 c-4 181 -1 178 -182 182 -133 3 -134 4 -145 29 -12 25 -8 31 72 112 93
94 111 122 103 154 -7 30 -497 517 -519 517 -10 0 -30 -6 -45 -14 -37 -19
-238 -226 -246 -253 -8 -26 16 -78 39 -87 47 -18 69 -6 155 79 l85 85 173
-173 172 -172 -85 -85 c-62 -62 -85 -91 -85 -110 0 -14 18 -68 39 -120 27 -67
45 -99 62 -107 15 -8 67 -13 137 -13 l112 0 0 -240 0 -240 -118 0 c-131 0
-151 -7 -172 -62 -7 -18 -26 -64 -42 -101 -19 -45 -27 -75 -22 -90 4 -12 43
-59 88 -105 l80 -83 -167 -166 -166 -167 -84 82 c-101 98 -108 99 -246 45
-116 -47 -121 -56 -121 -208 l0 -105 -235 0 -235 0 0 123 c0 139 -7 154 -77
178 -21 6 -60 23 -88 35 -79 37 -87 34 -187 -63 l-89 -87 -166 167 -167 166
80 83 c45 46 84 93 89 106 6 21 -30 123 -77 219 -16 32 -59 43 -174 43 l-104
0 0 235 0 235 123 0 c109 0 126 2 144 20 12 10 25 30 28 42 4 13 21 54 37 92
20 47 28 76 23 95 -3 14 -43 63 -88 109 l-82 82 170 170 169 169 87 -84 c76
-74 91 -85 122 -85 41 0 77 36 77 78 0 37 -232 269 -278 278 -33 7 -39 1 -283
-242 -304 -303 -293 -274 -157 -411 87 -87 91 -94 82 -120 l-9 -28 -137 -5
c-126 -5 -139 -7 -160 -28 l-23 -23 0 -349 0 -349 23 -23 c21 -21 33 -23 156
-26 133 -3 134 -4 145 -29 12 -25 8 -31 -72 -112 -93 -94 -111 -122 -103 -154
7 -30 497 -517 520 -517 31 0 59 21 147 107 81 80 87 84 112 72 25 -11 26 -12
29 -145 3 -123 5 -135 26 -156 l23 -23 349 0 349 0 23 23 c21 21 23 33 26 156
3 133 4 134 29 145 25 12 31 8 112 -72 88 -86 116 -107 147 -107 23 0 513 487
520 517 8 32 -10 60 -103 154 -80 81 -84 87 -72 112 11 25 12 26 145 29 181 4
178 1 182 183 l4 135 60 0 c71 0 125 -26 154 -73 18 -30 19 -62 24 -452 7
-488 6 -482 99 -576 127 -126 315 -126 442 0 98 98 93 65 97 748 l3 592 37 6
c128 22 212 70 283 165 68 91 74 125 74 452 0 282 0 288 -22 309 -15 16 -38
24 -77 27 l-54 4 -4 134 c-3 122 -5 135 -25 155 -13 14 -34 22 -53 22 -19 0
-40 -8 -53 -22 -20 -20 -22 -33 -25 -156 l-4 -135 -158 0 -158 0 -4 135 c-3
119 -5 137 -23 154 -28 27 -56 33 -85 18z m588 -705 l-3 -239 -30 -49 c-19
-30 -49 -60 -79 -79 l-49 -30 -157 0 -157 0 -49 30 c-30 19 -60 49 -79 79
l-30 49 -3 239 -3 238 321 0 321 0 -3 -238z"/>
<path d="M4429 2211 c-16 -16 -29 -39 -29 -51 0 -28 52 -80 80 -80 28 0 80 52
80 80 0 28 -52 80 -80 80 -12 0 -35 -13 -51 -29z"/>
</g>
</svg>
