<?xml version="1.0" standalone="no"?>
<!DOCTYPE svg PUBLIC "-//W3C//DTD SVG 20010904//EN"
 "http://www.w3.org/TR/2001/REC-SVG-20010904/DTD/svg10.dtd">
<svg version="1.0" xmlns="http://www.w3.org/2000/svg"
 width="1024.000000pt" height="1024.000000pt" viewBox="0 0 1024.000000 1024.000000"
 preserveAspectRatio="xMidYMid meet">

<g transform="translate(0.000000,1024.000000) scale(0.100000,-0.100000)"
fill="#000000" stroke="none">
<path d="M2503 8223 c-28 -87 -124 -383 -213 -658 -89 -275 -191 -586 -226
-692 -164 -490 -187 -573 -186 -654 3 -182 127 -360 308 -441 l74 -33 0 -1197
0 -1197 -149 -3 c-142 -3 -151 -4 -175 -27 -25 -24 -26 -29 -26 -141 0 -109 2
-118 23 -138 13 -12 35 -22 49 -22 14 0 45 -3 69 -6 l44 -6 -3 -558 -2 -558
26 -21 27 -21 2984 2 2985 3 19 24 c18 22 19 47 19 576 l0 553 23 6 c12 3 43
6 69 6 38 0 50 5 68 27 19 24 20 37 18 142 l-3 115 -34 23 c-31 21 -45 23
-172 23 l-139 0 0 1198 1 1197 89 43 c118 56 196 131 245 235 47 98 63 189 46
271 -9 44 -562 1728 -674 2054 l-11 32 -2561 0 -2561 0 -51 -157z m4564 -188
c37 -11 62 -28 97 -65 25 -27 46 -52 46 -54 0 -3 -25 -18 -56 -34 l-56 -28
-38 38 c-32 32 -44 38 -82 38 -58 0 -88 -22 -88 -64 0 -44 20 -59 120 -91 134
-43 176 -70 207 -130 20 -38 20 -122 0 -160 -22 -44 -66 -85 -112 -106 -51
-24 -180 -26 -233 -4 -42 18 -107 77 -127 116 -14 27 -14 27 43 52 l57 24 35
-37 c54 -58 145 -67 197 -18 53 49 16 100 -98 137 -104 33 -142 54 -183 102
-66 77 -59 169 19 237 70 61 152 77 252 47z m-3617 -55 l0 -60 -145 0 -145 0
0 -75 0 -74 108 -3 107 -3 3 -57 3 -58 -111 0 -110 0 0 -145 0 -145 -65 0 -65
0 0 340 0 340 210 0 210 0 0 -60z m429 -67 c145 -462 168 -539 164 -545 -2 -5
-33 -8 -68 -8 l-64 0 -21 73 c-12 39 -24 80 -26 90 -5 15 -19 17 -104 17 l-99
0 -15 -52 c-8 -29 -19 -69 -23 -88 l-9 -35 -67 -3 c-48 -2 -67 1 -67 9 0 7 39
137 86 288 47 152 93 300 102 329 l16 52 78 0 77 0 40 -127z m664 98 c113 -55
143 -203 59 -289 -20 -20 -46 -42 -57 -48 -19 -11 -18 -16 42 -140 88 -185 88
-174 9 -174 l-66 0 -70 140 -70 140 -40 0 -40 0 0 -140 0 -141 -67 3 -68 3 -3
339 -2 338 162 -4 c147 -3 168 -6 211 -27z m448 -1 c4 -14 31 -105 60 -203 29
-97 54 -176 56 -173 2 2 30 93 62 202 l58 199 96 3 97 3 0 -341 0 -340 -65 0
-65 0 -1 253 -1 252 -22 -85 c-36 -134 -110 -405 -111 -408 -1 -1 -25 -4 -53
-6 -51 -4 -52 -3 -60 28 -5 17 -38 130 -73 251 l-64 220 -3 -252 -2 -253 -60
0 -60 0 0 340 0 341 102 -3 c98 -3 102 -4 109 -28z m1019 -30 l0 -60 -145 0
-145 0 0 -65 0 -65 120 0 120 0 0 -60 0 -60 -120 0 -120 0 0 -90 0 -90 150 0
150 0 0 -65 0 -65 -217 2 -218 3 -3 338 -3 337 216 0 215 0 0 -60z m471 50
c87 -24 140 -83 147 -163 7 -89 -24 -147 -102 -192 -16 -9 -12 -22 43 -135 87
-181 86 -170 4 -170 l-68 0 -68 135 -67 135 -40 0 -40 0 0 -135 0 -135 -70 0
-70 0 0 335 0 335 148 0 c81 0 163 -5 183 -10z m-2967 -1147 c32 -109 61 -204
65 -211 5 -8 32 70 65 185 31 109 59 204 61 211 3 8 32 12 100 12 l95 0 0
-340 0 -341 -62 3 c-57 3 -63 5 -64 26 -1 12 -2 122 -3 245 l-2 222 -30 -105
c-16 -58 -43 -154 -60 -215 -53 -194 -43 -176 -102 -173 l-52 3 -61 210 c-33
116 -65 226 -71 245 -9 27 -11 -19 -12 -212 l-1 -248 -65 0 -65 0 0 340 0 340
103 0 104 0 57 -197z m860 189 c5 -9 206 -657 206 -666 0 -3 -31 -6 -69 -6
l-68 0 -25 83 -24 82 -101 3 -101 3 -15 -53 c-8 -29 -18 -68 -22 -85 l-7 -33
-69 0 c-38 0 -69 4 -69 9 0 5 7 28 15 52 9 24 54 170 101 324 47 153 88 283
90 287 7 10 151 10 158 0z m697 -23 c89 -42 130 -139 100 -232 -11 -34 -72
-99 -101 -109 -10 -3 6 -45 53 -144 37 -77 67 -145 67 -152 0 -10 -18 -12 -67
-10 l-68 3 -70 137 -70 138 -40 0 -40 0 0 -137 0 -138 -67 -3 -68 -3 0 341 0
342 158 -4 c145 -3 161 -5 213 -29z m391 -105 l3 -136 103 136 103 136 79 0
c44 0 80 -4 80 -8 0 -4 -47 -65 -105 -134 l-104 -127 43 -78 c23 -43 73 -135
110 -205 l68 -128 -81 0 -81 0 -76 152 -76 152 -34 -37 -34 -37 0 -115 0 -115
-70 0 -70 0 0 340 0 340 70 0 69 0 3 -136z m938 76 l0 -60 -150 0 -150 0 0
-70 0 -70 120 0 120 0 0 -55 0 -55 -120 0 -120 0 0 -90 0 -90 155 0 155 0 0
-65 0 -65 -220 0 -220 0 0 340 0 340 215 0 215 0 0 -60z m600 0 l0 -60 -92 0
-93 0 -2 -278 -2 -277 -65 -3 -66 -3 0 281 0 280 -90 0 -90 0 0 60 0 60 250 0
250 0 0 -60z m-2976 -999 c78 -117 191 -202 330 -248 70 -23 98 -27 201 -27
103 0 131 4 201 27 137 45 242 123 320 237 l47 70 21 -43 c12 -23 53 -74 92
-113 189 -190 494 -238 742 -117 87 43 201 145 252 226 l34 55 27 -47 c64
-112 189 -212 322 -259 87 -30 236 -41 329 -23 143 28 297 130 384 256 l38 56
25 -53 c38 -79 152 -190 239 -231 l70 -34 3 -459 c2 -252 2 -793 1 -1201 l-2
-743 -2580 0 -2580 0 0 1198 0 1197 75 39 c92 47 178 130 224 216 l33 62 33
-49 c44 -66 132 -145 209 -188 119 -66 299 -93 438 -64 142 29 309 147 388
273 19 31 36 56 37 56 1 0 22 -31 47 -69z"/>
<path d="M3726 7775 c-16 -57 -28 -107 -27 -111 1 -7 120 -9 123 -3 3 8 -57
219 -62 219 -3 0 -18 -47 -34 -105z"/>
<path d="M4310 7835 l0 -85 59 0 c69 0 118 15 131 40 18 33 11 79 -15 105 -21
22 -33 25 -100 25 l-75 0 0 -85z"/>
<path d="M6290 7835 l0 -85 65 0 c69 0 118 17 129 45 3 9 6 32 6 50 0 54 -36
75 -126 75 l-74 0 0 -85z"/>
<path d="M4286 6909 c-14 -41 -56 -195 -56 -206 0 -9 19 -13 66 -13 58 0 65 2
60 18 -3 9 -17 60 -32 112 -29 104 -31 109 -38 89z"/>
<path d="M4833 6874 l-2 -86 86 4 c75 3 87 6 104 27 27 33 25 86 -6 116 -21
22 -33 25 -102 25 l-78 0 -2 -86z"/>
<path d="M3454 5529 c-17 -19 -19 -39 -19 -240 0 -120 -2 -219 -5 -219 -3 0
-33 55 -65 121 -78 158 -87 169 -134 169 -53 0 -91 -31 -91 -74 0 -38 181
-412 224 -463 14 -17 23 -34 19 -36 -5 -2 -33 -8 -64 -11 -79 -10 -115 -35
-147 -104 -34 -74 -39 -155 -17 -255 l17 -77 115 0 c63 0 123 -5 134 -10 22
-12 26 -62 7 -78 -7 -5 -57 -12 -110 -14 -60 -2 -102 -8 -110 -16 -15 -15 -9
-52 81 -447 l68 -300 166 -3 c166 -2 167 -2 167 19 0 12 18 98 40 190 22 93
40 171 40 174 0 3 -49 5 -109 5 -120 0 -148 11 -135 54 11 37 34 46 113 46 96
0 149 14 160 43 5 12 30 114 56 227 43 184 47 213 42 289 -4 69 -11 95 -38
149 -40 77 -73 101 -154 109 -30 3 -55 10 -55 15 0 6 14 27 31 49 29 37 182
344 210 421 12 35 11 40 -8 65 -11 15 -34 32 -52 37 -58 17 -74 -1 -155 -161
l-75 -148 0 223 -1 223 -25 24 c-32 33 -93 34 -121 4z"/>
<path d="M6403 5266 c-247 -57 -441 -287 -498 -591 -14 -71 -16 -122 -12 -240
8 -210 42 -334 128 -470 47 -75 176 -200 242 -235 l46 -25 3 -115 3 -115 61
-3 c52 -2 63 0 68 15 4 10 4 106 0 213 l-7 196 -59 38 c-78 50 -238 243 -238
287 0 9 9 24 20 34 28 25 61 13 86 -32 12 -21 50 -72 84 -114 59 -74 103 -109
117 -96 6 6 -3 59 -23 141 -4 17 0 57 11 102 29 115 20 135 -88 200 -102 61
-185 128 -197 158 -10 26 4 53 30 61 15 5 37 -7 83 -43 80 -64 164 -115 176
-108 5 4 7 87 4 204 -6 216 -2 242 42 242 47 0 55 -38 56 -252 0 -106 4 -202
8 -213 6 -16 15 -5 50 61 71 138 155 226 321 337 30 21 68 48 84 61 l30 25
-29 41 c-36 53 -124 133 -182 167 -123 72 -288 99 -420 69z"/>
<path d="M4862 4979 c-26 -10 -26 -10 -7 -56 8 -19 20 -65 25 -102 6 -36 12
-76 15 -88 5 -22 5 -22 -77 8 -144 53 -253 38 -325 -44 -52 -59 -41 -67 102
-83 71 -7 108 -25 132 -61 17 -26 17 -26 -15 -53 -27 -22 -34 -38 -42 -86 -16
-99 -15 -107 19 -101 49 10 112 44 190 103 41 30 81 56 90 57 9 0 57 -27 108
-61 91 -63 188 -110 200 -99 3 4 0 41 -7 84 -9 59 -18 85 -37 105 -50 53 -7
90 127 108 99 13 150 27 150 42 0 17 -68 77 -113 100 -63 32 -152 28 -255 -12
-45 -17 -87 -28 -93 -24 -8 5 -10 29 -6 78 7 81 -8 125 -53 157 -33 24 -100
38 -128 28z"/>
<path d="M7033 4867 c-21 -18 -60 -46 -88 -62 -74 -42 -203 -177 -248 -260
-52 -93 -91 -213 -122 -370 -24 -124 -25 -144 -23 -415 l3 -285 83 -3 82 -3 0
103 c0 57 4 108 8 113 4 6 41 30 82 55 172 100 294 275 345 491 26 109 31 303
11 417 -17 96 -70 252 -87 252 -5 0 -26 -15 -46 -33z"/>
<path d="M4433 4470 c-95 -34 -166 -102 -214 -205 -110 -235 -60 -509 129
-703 95 -98 62 -93 625 -90 l493 3 42 27 c55 37 152 156 191 235 80 159 81
380 4 541 -16 31 -53 82 -84 114 -46 47 -67 60 -123 77 -79 24 -136 27 -136 8
0 -8 7 -63 15 -123 9 -60 13 -119 10 -131 -8 -35 -45 -37 -142 -8 -105 32
-126 43 -205 101 -68 50 -52 53 -163 -25 -67 -47 -131 -73 -229 -92 -68 -13
-69 -13 -88 11 -13 16 -18 32 -14 50 4 14 11 57 16 95 5 39 12 85 16 103 l7
32 -49 0 c-27 -1 -73 -9 -101 -20z"/>
</g>
</svg>
