<?xml version="1.0" standalone="no"?>
<!DOCTYPE svg PUBLIC "-//W3C//DTD SVG 20010904//EN"
 "http://www.w3.org/TR/2001/REC-SVG-20010904/DTD/svg10.dtd">
<svg version="1.0" xmlns="http://www.w3.org/2000/svg"
 width="1024.000000pt" height="1024.000000pt" viewBox="0 0 1024.000000 1024.000000"
 preserveAspectRatio="xMidYMid meet">

<g transform="translate(0.000000,1024.000000) scale(0.100000,-0.100000)"
fill="#000000" stroke="none">
<path d="M3215 6733 c-52 -11 -77 -28 -96 -64 -18 -36 -19 -63 -19 -567 0
-397 3 -531 12 -540 9 -9 211 -12 847 -12 460 0 842 4 849 8 10 7 12 122 10
560 l-3 552 -27 26 c-17 18 -43 30 -75 35 -49 8 -1462 10 -1498 2z m185 -393
c19 -19 20 -33 20 -294 0 -261 -1 -274 -21 -300 -25 -32 -64 -34 -96 -4 -23
21 -23 22 -23 298 0 264 1 277 20 298 26 28 73 29 100 2z"/>
<path d="M8195 6596 c-30 -13 -1120 -1110 -1142 -1149 -29 -51 -7 -133 42
-155 14 -7 55 -12 90 -12 l64 0 3 -672 c3 -644 4 -674 22 -705 41 -68 -18 -64
997 -61 900 3 917 3 939 23 57 52 55 22 55 747 l0 668 70 0 c86 0 127 21 145
74 20 61 2 89 -155 246 l-145 145 0 301 c0 279 -1 302 -18 317 -15 14 -41 17
-138 17 -166 0 -158 8 -162 -176 l-4 -147 -266 266 c-147 146 -280 271 -295
276 -37 14 -65 13 -102 -3z m195 -772 c0 -25 -16 -174 -36 -331 -33 -269 -34
-286 -18 -304 15 -17 36 -19 218 -21 l201 -3 3 -25 c2 -18 -48 -109 -181 -326
-304 -496 -408 -661 -427 -679 -22 -20 -67 -14 -77 11 -3 8 13 159 36 335 31
237 39 325 31 339 -10 19 -22 20 -203 20 -195 0 -217 4 -217 38 0 8 33 66 73
130 41 65 174 277 297 472 122 195 229 363 238 373 8 9 26 17 39 17 21 0 23
-4 23 -46z"/>
<path d="M1727 6585 c-324 -62 -580 -296 -693 -635 -26 -79 -28 -97 -28 -245
-1 -137 3 -171 22 -240 32 -111 78 -203 161 -319 123 -173 220 -392 222 -502
1 -70 20 -124 52 -148 28 -20 40 -21 395 -24 397 -4 428 0 463 48 13 17 22 55
28 115 16 154 74 289 216 500 157 232 188 325 189 560 1 152 -9 203 -64 342
-32 79 -98 187 -158 260 -84 100 -268 222 -407 269 -100 34 -275 42 -398 19z
m617 -541 c20 -19 13 -51 -24 -119 -19 -34 -30 -73 -35 -119 -27 -264 -163
-493 -353 -594 -76 -41 -142 -51 -177 -28 -34 23 -31 38 13 59 20 9 51 29 67
43 19 16 22 22 9 15 -12 -6 -40 -14 -63 -20 -63 -14 -57 7 43 162 95 147 127
227 91 227 -32 0 -114 -51 -153 -95 -49 -55 -96 -164 -112 -258 -12 -66 -9
-226 6 -309 5 -30 3 -38 -9 -38 -51 0 -86 103 -87 251 0 55 -4 80 -15 89 -24
20 -56 121 -62 196 -5 57 -1 87 17 145 20 66 29 80 93 145 59 58 91 81 177
122 110 54 184 77 371 117 136 28 182 31 203 9z"/>
<path d="M5152 6045 c-42 -36 -52 -92 -52 -304 0 -138 3 -181 14 -190 10 -8
248 -10 882 -9 l869 3 0 210 c0 224 -8 272 -48 300 -19 13 -127 15 -828 15
l-807 0 -30 -25z m608 -164 c5 -11 10 -43 10 -71 0 -93 8 -90 -219 -90 l-199
0 -26 31 c-28 33 -32 53 -16 95 20 51 30 53 242 54 185 0 198 -1 208 -19z
m870 9 c25 -14 43 -80 31 -113 -17 -43 -48 -57 -129 -57 -68 0 -76 2 -103 29
-23 23 -29 39 -29 70 0 66 23 81 126 81 47 0 94 -5 104 -10z"/>
<path d="M3118 5409 c-17 -9 -18 -58 -18 -797 0 -506 4 -800 10 -824 6 -20 24
-48 41 -62 26 -22 40 -26 95 -26 52 0 64 -3 64 -16 0 -25 54 -72 92 -79 47 -9
94 16 115 60 l17 35 427 0 427 0 12 -30 c24 -58 106 -78 167 -40 18 11 35 31
39 45 6 24 10 25 73 25 74 0 102 13 126 60 13 25 15 140 15 838 0 729 -2 810
-16 816 -28 11 -1668 6 -1686 -5z m285 -271 c15 -18 17 -47 17 -291 0 -264 -1
-271 -22 -294 -28 -30 -63 -29 -93 2 l-25 24 0 266 c0 169 4 274 11 286 22 42
79 45 112 7z"/>
<path d="M5112 5408 c-15 -15 -17 -1516 -2 -1599 7 -40 18 -61 40 -81 l30 -28
800 0 c553 0 806 3 823 11 13 6 32 25 43 42 18 31 19 64 22 836 2 595 0 807
-9 817 -16 19 -1728 21 -1747 2z m1054 -286 c228 -80 373 -272 391 -518 16
-218 -107 -444 -294 -542 -74 -39 -197 -72 -268 -72 -73 0 -194 33 -275 76
-131 68 -256 231 -289 374 -15 67 -13 217 4 285 27 105 72 184 149 260 119
118 230 163 401 164 85 1 112 -4 181 -27z"/>
<path d="M6133 4776 c-144 -51 -186 -80 -219 -150 -28 -60 -29 -79 -9 -136 8
-23 15 -62 15 -86 0 -25 9 -60 19 -80 l20 -37 6 29 c29 140 81 253 132 289 19
13 17 5 -17 -68 -41 -87 -70 -188 -70 -246 0 -33 0 -33 37 -26 94 17 214 118
267 223 32 64 56 160 56 229 0 49 -2 54 -37 78 -21 14 -47 25 -58 24 -11 0
-75 -20 -142 -43z"/>
<path d="M5543 4593 c14 -120 80 -256 144 -299 31 -20 166 -44 179 -31 24 24
-95 266 -167 338 -40 40 -79 51 -79 24 0 -19 -2 -19 -47 0 l-36 15 6 -47z"/>
<path d="M1452 4378 c-17 -17 -16 -162 2 -177 9 -8 133 -10 437 -9 l424 3 0
95 0 95 -425 3 c-323 2 -429 -1 -438 -10z"/>
<path d="M1450 4071 c-5 -11 -10 -47 -10 -79 0 -55 3 -63 31 -86 17 -14 41
-26 54 -26 61 0 80 -11 99 -56 23 -56 93 -118 159 -141 74 -25 181 -23 232 4
52 27 119 99 136 146 11 31 19 38 48 43 81 13 92 17 111 41 15 19 20 41 20 87
0 35 -5 67 -12 74 -9 9 -119 12 -435 12 -407 0 -423 -1 -433 -19z"/>
</g>
</svg>
