<?xml version="1.0" standalone="no"?>
<!DOCTYPE svg PUBLIC "-//W3C//DTD SVG 20010904//EN"
 "http://www.w3.org/TR/2001/REC-SVG-20010904/DTD/svg10.dtd">
<svg version="1.0" xmlns="http://www.w3.org/2000/svg"
 width="1024.000000pt" height="1024.000000pt" viewBox="0 0 1024.000000 1024.000000"
 preserveAspectRatio="xMidYMid meet">

<g transform="translate(0.000000,1024.000000) scale(0.100000,-0.100000)"
fill="#000000" stroke="none">
<path d="M7073 7185 c-394 -71 -762 -391 -932 -807 -86 -211 -98 -314 -82
-723 16 -418 1 -602 -66 -789 -14 -39 -64 -152 -110 -251 -198 -419 -237 -542
-237 -755 0 -110 4 -150 23 -215 80 -286 335 -508 676 -591 92 -23 282 -22
390 1 262 55 637 273 1005 583 331 280 562 562 779 952 243 436 314 958 195
1419 -111 427 -317 732 -642 950 -93 62 -293 156 -397 186 -49 14 -130 32
-180 40 -109 18 -324 18 -422 0z m497 -278 c315 -83 577 -287 745 -582 116
-203 195 -520 195 -775 -1 -240 -71 -534 -180 -751 -92 -181 -244 -420 -371
-581 -245 -308 -717 -678 -1059 -828 -141 -62 -235 -83 -365 -84 -134 0 -207
15 -309 64 -128 61 -234 174 -287 307 -22 52 -24 73 -23 203 0 140 2 149 37
252 20 60 64 168 98 240 131 283 179 396 202 478 62 216 82 472 66 852 -12
290 -4 399 38 533 93 295 348 556 640 654 171 58 395 64 573 18z"/>
<path d="M7205 6780 c-116 -19 -253 -74 -354 -143 -68 -47 -179 -155 -227
-223 -55 -77 -108 -191 -131 -281 -16 -60 -18 -122 -18 -513 0 -380 -3 -461
-18 -554 -39 -234 -83 -362 -236 -689 -141 -301 -155 -345 -156 -487 0 -104 2
-120 27 -173 31 -66 114 -158 176 -194 144 -85 353 -86 541 -4 251 111 577
338 815 570 356 347 629 806 713 1201 27 126 24 389 -6 528 -44 210 -111 368
-229 547 -163 245 -447 407 -737 420 -55 2 -127 0 -160 -5z m390 -777 c69 -34
108 -75 141 -147 39 -85 40 -177 2 -258 -70 -149 -251 -243 -400 -208 -71 18
-146 91 -177 175 -30 78 -26 197 8 267 49 102 144 176 251 197 60 11 115 3
175 -26z"/>
<path d="M2905 6949 c-367 -37 -644 -161 -878 -396 -145 -144 -263 -334 -317
-508 -28 -91 -50 -241 -50 -335 0 -79 12 -106 57 -129 16 -8 505 -11 1782 -11
l1761 0 32 29 33 30 -2 100 c-12 512 -387 993 -903 1155 -202 64 -251 68 -865
71 -308 2 -600 -1 -650 -6z m640 -404 c55 -54 19 -145 -56 -145 -39 0 -89 48
-89 85 0 16 12 38 29 56 38 37 82 39 116 4z m655 -170 c35 -18 50 -43 50 -85
0 -42 -47 -90 -89 -90 -71 0 -116 95 -72 152 19 23 31 29 74 37 4 0 21 -6 37
-14z m-1326 -21 c53 -54 21 -144 -51 -144 -47 0 -72 16 -89 55 -36 87 73 156
140 89z"/>
<path d="M1749 5406 c-147 -39 -241 -159 -242 -310 -1 -124 67 -231 181 -287
l47 -24 1752 -3 c1743 -2 1752 -2 1806 18 73 27 139 88 174 158 37 74 40 191
7 263 -42 90 -116 154 -214 183 -47 14 -168 16 -1025 16 -1050 0 -1024 1
-1133 -54 -26 -13 -108 -73 -182 -133 -155 -124 -206 -153 -290 -160 -107 -10
-185 29 -365 182 -107 91 -171 129 -250 150 -70 18 -201 19 -266 1z"/>
<path d="M1688 4581 l-33 -29 1 -139 c0 -123 3 -146 26 -211 38 -107 83 -177
168 -262 54 -54 98 -87 155 -117 160 -83 49 -76 1425 -80 731 -3 1263 0 1320
6 168 16 277 68 401 191 129 128 187 260 196 446 6 125 -4 172 -44 204 -26 20
-36 20 -1804 20 l-1779 0 -32 -29z"/>
</g>
</svg>
