<?xml version="1.0" standalone="no"?>
<!DOCTYPE svg PUBLIC "-//W3C//DTD SVG 20010904//EN"
 "http://www.w3.org/TR/2001/REC-SVG-20010904/DTD/svg10.dtd">
<svg version="1.0" xmlns="http://www.w3.org/2000/svg"
 width="1024.000000pt" height="1024.000000pt" viewBox="0 0 1024.000000 1024.000000"
 preserveAspectRatio="xMidYMid meet">
<metadata>
Created by potrace 1.16, written by Peter Selinger 2001-2019
</metadata>
<g transform="translate(0.000000,1024.000000) scale(0.100000,-0.100000)"
fill="#000000" stroke="none">
<path d="M3162 6710 c-62 -38 -62 -35 -62 -613 0 -393 3 -526 12 -535 9 -9
211 -12 848 -12 801 0 838 1 854 18 15 17 16 66 16 537 -1 495 -2 519 -20 556
-38 73 9 69 -847 69 -753 0 -769 0 -801 -20z m242 -372 c14 -19 16 -65 16
-300 0 -265 -1 -279 -20 -298 -27 -27 -75 -26 -94 2 -14 19 -16 65 -16 298 0
310 2 320 65 320 24 0 39 -7 49 -22z"/>
<path d="M8215 6596 c-16 -8 -288 -272 -602 -588 -566 -567 -573 -574 -573
-613 0 -76 51 -115 150 -115 l60 0 0 -662 c0 -635 1 -665 20 -706 15 -33 29
-47 62 -62 39 -18 67 -20 296 -20 239 0 253 1 272 20 19 19 20 33 20 528 0
382 3 511 12 520 16 16 610 17 639 2 18 -10 19 -27 19 -524 0 -489 1 -514 19
-530 17 -15 46 -17 293 -14 l274 3 31 25 c65 51 64 35 61 762 l-3 656 77 4
c69 3 80 6 107 32 38 36 48 83 28 122 -9 16 -77 90 -151 164 l-136 135 0 307
c0 265 -2 309 -16 322 -12 13 -41 16 -148 16 -89 0 -136 -4 -144 -12 -8 -8
-12 -58 -12 -160 0 -81 -3 -148 -8 -148 -4 0 -124 117 -267 261 -235 236 -298
290 -337 289 -7 -1 -26 -7 -43 -14z"/>
<path d="M1752 6590 c-35 -5 -94 -19 -130 -31 -296 -96 -506 -318 -595 -628
-30 -107 -30 -339 1 -456 28 -105 95 -238 175 -350 126 -175 207 -376 207
-511 0 -66 3 -78 25 -99 l24 -25 415 0 415 0 26 23 c23 19 27 33 34 107 7 65
19 111 53 195 59 145 111 246 163 320 86 121 154 285 172 412 15 108 7 283
-18 374 -74 276 -245 485 -491 598 -45 21 -113 46 -150 55 -82 20 -242 28
-326 16z"/>
<path d="M5190 6072 c-72 -39 -75 -49 -78 -286 -3 -187 -1 -216 13 -230 15
-15 93 -16 878 -14 l862 3 0 215 c0 236 -6 263 -63 305 -26 20 -45 20 -802 23
-741 2 -777 2 -810 -16z m1437 -174 c19 -19 27 -40 31 -77 4 -47 2 -53 -31
-86 -31 -31 -41 -35 -85 -35 -113 0 -162 122 -81 203 27 27 34 29 85 25 42 -4
61 -11 81 -30z m-853 -14 c3 -9 6 -44 6 -79 0 -48 -4 -64 -16 -69 -31 -12
-419 -7 -432 6 -7 7 -12 39 -12 73 0 34 5 66 12 73 9 9 72 12 224 12 184 0
213 -2 218 -16z"/>
<path d="M3116 5404 c-14 -14 -16 -100 -16 -807 0 -734 1 -795 18 -827 21 -44
72 -70 135 -70 26 0 47 -4 47 -10 0 -5 9 -19 20 -30 17 -17 33 -20 100 -20 79
0 81 1 98 30 l17 30 428 0 c278 0 427 -3 427 -10 0 -5 9 -19 20 -30 16 -16 33
-20 94 -20 76 0 106 13 106 46 0 10 14 14 56 14 78 0 122 23 145 76 18 40 19
79 17 841 l-3 798 -847 3 c-760 2 -848 0 -862 -14z m278 -255 l26 -20 0 -263
c0 -295 -2 -306 -65 -306 -63 0 -65 11 -65 306 l0 263 26 20 c15 12 32 21 39
21 7 0 24 -9 39 -21z"/>
<path d="M5110 4618 c0 -745 1 -805 18 -837 9 -19 30 -44 45 -55 28 -21 37
-21 805 -24 869 -2 824 -6 867 68 20 34 20 51 22 843 l3 807 -880 0 -880 0 0
-802z m1003 507 c284 -60 487 -369 433 -658 -35 -185 -147 -338 -300 -412 -86
-41 -229 -70 -295 -60 -25 4 -48 7 -51 7 -3 0 -27 7 -55 15 -259 76 -441 328
-422 581 12 152 65 269 167 372 140 139 331 196 523 155z"/>
<path d="M5890 4970 c-74 -18 -133 -52 -189 -107 -206 -207 -153 -538 106
-665 65 -31 73 -33 178 -32 135 0 199 22 278 94 166 151 180 404 33 583 -42
51 -126 104 -198 123 -58 15 -152 17 -208 4z"/>
<path d="M1525 4383 c-91 -5 -105 -18 -105 -93 0 -100 -24 -95 447 -98 484 -3
455 -10 451 101 -3 65 -5 73 -28 84 -19 10 -107 12 -360 11 -184 -1 -366 -4
-405 -5z"/>
<path d="M1449 4071 c-20 -16 -24 -28 -22 -71 1 -33 7 -58 18 -70 18 -20 113
-60 143 -60 11 0 24 -16 35 -45 27 -65 112 -139 178 -155 67 -16 164 -8 215
18 54 27 111 87 129 137 15 37 21 42 76 58 85 25 109 52 109 121 0 90 21 86
-451 86 -386 0 -408 -1 -430 -19z"/>
</g>
</svg>
