<?xml version="1.0" standalone="no"?>
<!DOCTYPE svg PUBLIC "-//W3C//DTD SVG 20010904//EN"
 "http://www.w3.org/TR/2001/REC-SVG-20010904/DTD/svg10.dtd">
<svg version="1.0" xmlns="http://www.w3.org/2000/svg"
 width="1024.000000pt" height="1024.000000pt" viewBox="0 0 1024.000000 1024.000000"
 preserveAspectRatio="xMidYMid meet">

<g transform="translate(0.000000,1024.000000) scale(0.100000,-0.100000)"
fill="#000000" stroke="none">
<path d="M2715 8474 c-42 -23 -64 -44 -84 -79 -14 -26 -17 -86 -21 -469 l-5
-440 -128 315 c-136 332 -156 367 -225 390 -45 15 -118 6 -151 -18 -39 -30
-69 -79 -76 -127 -5 -34 -1 -58 23 -117 24 -61 300 -697 395 -911 l26 -58 -45
-19 c-25 -11 -82 -44 -127 -74 -65 -43 -89 -65 -115 -109 -44 -74 -72 -157
-82 -246 -8 -77 1 -273 19 -397 6 -38 11 -73 11 -77 0 -5 105 -8 234 -8 231 0
235 0 250 -22 24 -34 20 -90 -7 -116 -22 -21 -31 -22 -235 -22 -117 0 -212 -2
-212 -5 0 -53 315 -1444 340 -1503 l10 -22 281 2 c238 3 283 5 290 18 4 8 48
186 96 395 l88 380 -207 5 c-113 3 -208 7 -211 10 -33 37 -34 94 -2 125 24 25
24 25 240 25 118 0 215 3 215 8 0 4 20 106 44 227 25 121 61 319 82 440 34
198 38 239 38 405 1 168 -1 192 -22 256 -50 150 -102 206 -273 291 l-76 38
214 490 c117 270 218 507 223 527 19 67 -11 145 -72 191 -33 24 -105 33 -151
18 -71 -24 -74 -30 -313 -611 l-44 -105 0 435 c0 403 -2 438 -19 476 -38 84
-144 127 -216 88z"/>
<path d="M7355 7405 c-253 -55 -479 -246 -653 -552 -264 -462 -271 -1048 -18
-1551 104 -208 284 -422 439 -522 l67 -44 0 -188 c0 -175 1 -188 19 -198 30
-16 123 -12 149 6 l22 15 0 399 0 398 -62 35 c-205 115 -381 288 -436 428 -18
46 -6 84 30 98 43 16 71 -2 109 -69 63 -111 185 -231 312 -304 l47 -28 0 319
0 319 -82 41 c-146 72 -260 178 -333 308 -47 83 -51 105 -25 138 17 21 30 27
61 27 39 0 39 0 75 -76 55 -114 167 -227 268 -269 l38 -16 -5 338 c-4 186 -9
352 -13 370 -5 27 -2 36 21 57 46 43 102 29 118 -29 19 -62 31 -236 36 -515
l6 -315 71 135 c85 162 166 295 245 399 80 107 241 258 335 316 44 27 81 50
83 51 1 2 -21 37 -50 79 -66 95 -164 203 -240 261 -77 59 -207 120 -294 139
-85 18 -259 18 -340 0z"/>
<path d="M4883 6840 c-42 -18 -44 -41 -8 -100 28 -46 115 -273 115 -300 0 -4
-17 -2 -37 5 -50 17 -200 35 -288 35 -95 -1 -206 -22 -290 -55 -82 -33 -200
-105 -188 -114 4 -4 49 -15 98 -25 134 -27 292 -75 358 -107 31 -16 57 -32 57
-35 0 -3 -18 -36 -40 -72 -58 -99 -91 -195 -97 -284 -4 -52 -2 -78 5 -78 5 0
51 13 101 30 162 53 327 147 410 234 l35 36 55 -53 c75 -71 134 -110 244 -162
94 -45 234 -89 241 -77 8 14 -14 141 -33 196 -23 66 -83 177 -106 196 -8 7
-15 17 -15 22 0 27 279 125 449 159 l65 12 -35 29 c-47 40 -180 104 -259 125
-100 27 -298 23 -416 -8 l-90 -24 4 78 c8 138 -37 249 -126 312 -37 25 -54 30
-115 32 -40 2 -82 -1 -94 -7z"/>
<path d="M8265 6742 c-188 -133 -381 -385 -525 -684 -156 -326 -200 -615 -200
-1334 0 -278 3 -344 14 -360 13 -17 27 -19 131 -19 105 0 118 2 131 20 12 16
14 56 13 195 l-1 175 58 33 c217 123 423 390 540 699 121 320 135 719 39 1055
-33 115 -97 262 -116 266 -8 1 -46 -19 -84 -46z"/>
<path d="M4245 6063 c-141 -93 -296 -283 -363 -445 -107 -257 -104 -555 8
-803 78 -172 253 -380 377 -448 l51 -27 794 2 793 3 50 34 c124 86 251 233
325 377 167 326 157 709 -28 1013 -86 142 -238 288 -339 327 -39 15 -45 15
-116 -6 l-74 -22 28 -72 c47 -121 60 -252 38 -386 -16 -103 -13 -102 -196 -42
-181 60 -308 119 -406 185 l-67 47 -108 -65 c-127 -76 -251 -130 -415 -179
-123 -37 -152 -42 -161 -27 -3 5 -11 54 -18 110 -14 121 -1 243 37 350 14 37
25 73 25 78 0 12 -98 43 -136 43 -18 0 -56 -18 -99 -47z"/>
<path d="M1713 4145 c-18 -8 -42 -29 -53 -47 -20 -33 -20 -43 -18 -928 l3
-895 23 -57 c34 -85 81 -147 149 -200 144 -109 325 -128 493 -50 68 31 181
142 200 195 8 20 16 37 20 37 3 0 18 -25 34 -55 68 -131 229 -225 386 -225
163 0 341 103 406 235 l26 55 26 -53 c83 -167 287 -268 480 -238 160 24 310
133 338 245 10 42 20 39 52 -16 66 -117 198 -206 338 -229 85 -14 195 4 281
46 73 36 153 113 190 181 l31 58 23 -50 c52 -110 185 -202 327 -226 185 -31
395 68 478 226 l28 55 26 -48 c43 -78 79 -119 142 -161 224 -150 542 -79 671
148 l30 53 29 -53 c43 -80 103 -134 196 -181 74 -36 93 -41 171 -45 101 -5
170 7 247 44 76 36 167 123 200 191 l27 55 26 -52 c136 -276 538 -329 746 -98
45 50 91 145 105 217 6 34 10 371 10 915 0 963 4 912 -70 948 -33 17 -216 18
-3410 18 -2875 -1 -3380 -3 -3407 -15z"/>
</g>
</svg>
