<?xml version="1.0" standalone="no"?>
<!DOCTYPE svg PUBLIC "-//W3C//DTD SVG 20010904//EN"
 "http://www.w3.org/TR/2001/REC-SVG-20010904/DTD/svg10.dtd">
<svg version="1.0" xmlns="http://www.w3.org/2000/svg"
 width="1024.000000pt" height="1024.000000pt" viewBox="0 0 1024.000000 1024.000000"
 preserveAspectRatio="xMidYMid meet">

<g transform="translate(0.000000,1024.000000) scale(0.100000,-0.100000)"
fill="#000000" stroke="none">
<path d="M1807 8086 c-51 -19 -75 -42 -87 -85 -6 -23 -10 -320 -10 -797 0
-751 0 -760 20 -782 l21 -22 3367 0 c3032 0 3370 2 3390 16 l22 15 0 772 c0
740 -1 774 -20 814 -11 25 -33 51 -52 63 -33 20 -41 20 -3323 20 -2749 -1
-3296 -3 -3328 -14z m600 -511 c29 -17 53 -43 73 -78 42 -74 41 -77 -35 -77
-37 0 -65 4 -65 10 0 21 -41 50 -71 50 -41 0 -68 -16 -80 -47 -17 -46 -2 -63
105 -113 141 -67 186 -118 186 -213 -1 -133 -133 -228 -277 -197 -68 15 -108
42 -143 97 -45 71 -42 79 35 90 44 6 48 4 76 -30 36 -44 82 -56 127 -33 33 17
42 34 42 77 0 41 -37 72 -123 105 -132 50 -187 134 -157 242 13 50 62 109 105
128 16 7 59 13 94 14 51 0 73 -5 108 -25z m1701 16 c9 -5 12 -25 10 -62 l-3
-54 -137 -3 -138 -3 0 -79 0 -80 110 0 110 0 0 -49 c0 -61 -8 -64 -129 -60
l-86 4 -3 -82 -3 -82 143 -3 143 -3 3 -57 3 -58 -211 0 -210 0 0 335 0 335
183 3 c100 1 187 3 192 5 6 1 16 -2 23 -7z m3014 -19 c-1 -7 -43 -67 -92 -133
l-90 -120 36 -72 c20 -40 68 -127 106 -195 39 -68 68 -125 66 -126 -1 -2 -33
-6 -70 -9 l-67 -6 -60 107 c-32 59 -70 128 -82 155 l-23 47 -23 -27 c-20 -25
-22 -39 -23 -128 -1 -147 0 -146 -74 -143 l-61 3 0 330 0 330 65 0 65 0 3
-124 3 -124 59 81 c33 45 72 101 86 124 15 24 30 45 35 48 4 3 38 3 76 0 48
-4 67 -9 65 -18z m523 -37 l0 -60 -137 -3 -138 -3 0 -79 0 -80 111 0 110 0 -3
-52 -3 -53 -105 0 -105 0 0 -80 0 -80 140 -5 140 -5 3 -58 3 -57 -208 2 -208
3 -3 325 c-2 299 -1 326 15 338 13 9 65 12 203 10 l185 -3 0 -60z m493 53 c15
-15 16 -94 1 -104 -6 -3 -41 -7 -78 -8 l-66 -1 -3 -277 -2 -278 -60 0 -60 0
-2 278 -3 277 -66 1 c-36 0 -70 4 -77 8 -16 9 -16 88 0 104 9 9 69 12 208 12
139 0 199 -3 208 -12z m-5388 -250 c5 -231 6 -248 26 -275 14 -19 32 -29 54
-31 53 -5 75 5 93 43 14 30 17 70 17 263 0 125 4 233 9 240 5 9 27 12 72 10
l64 -3 0 -246 0 -245 -30 -59 c-20 -40 -45 -69 -73 -90 -39 -26 -53 -30 -126
-33 -97 -5 -147 15 -191 72 -48 63 -55 109 -55 361 0 127 3 235 7 239 4 4 34
6 68 4 l60 -3 5 -247z m766 217 c193 -120 90 -405 -148 -405 l-48 0 0 -115 0
-116 -62 3 -63 3 -3 333 -2 334 138 -4 c134 -3 140 -4 188 -33z m1041 20 c49
-20 71 -41 95 -89 34 -67 10 -196 -48 -257 l-25 -26 51 -133 c27 -73 50 -137
50 -142 0 -4 -31 -8 -69 -8 l-70 0 -29 78 c-16 42 -37 101 -47 130 -15 47 -20
53 -39 48 -11 -3 -31 -6 -43 -6 -22 0 -22 -4 -25 -122 l-3 -123 -65 0 -65 0
-3 320 c-1 176 0 325 3 332 7 20 284 18 332 -2z m445 -70 c23 -69 49 -163 73
-270 7 -30 25 22 92 265 26 94 22 91 126 88 l92 -3 0 -335 0 -335 -65 0 -65 0
0 243 c0 133 -3 242 -6 242 -4 0 -9 -19 -13 -42 -4 -24 -34 -132 -66 -241 -33
-109 -60 -200 -60 -203 0 -3 -16 -4 -37 -2 l-36 3 -54 179 c-29 98 -59 207
-65 242 -7 35 -15 64 -18 64 -3 0 -4 -108 -2 -239 3 -235 2 -240 -18 -246 -11
-4 -39 -4 -60 0 l-40 7 0 334 0 335 98 -3 97 -3 27 -80z m822 73 c2 -7 47
-147 100 -311 90 -278 107 -346 89 -348 -5 0 -33 -1 -63 -2 l-55 -2 -26 79
-26 80 -104 -2 -104 -1 -25 -78 -25 -78 -62 -3 c-49 -2 -63 0 -63 11 0 11 185
574 215 655 3 8 28 12 75 12 48 0 72 -4 74 -12z m617 -15 c77 -40 99 -77 99
-170 0 -78 -17 -125 -59 -170 l-22 -23 20 -57 c10 -32 33 -94 50 -137 17 -44
30 -81 28 -82 -1 -1 -30 -5 -64 -9 l-62 -7 -17 34 c-10 18 -32 76 -50 128
l-32 95 -46 3 -46 3 0 -120 c0 -134 -3 -141 -74 -141 -70 0 -66 -23 -66 339 0
180 3 331 7 334 3 4 68 7 143 7 129 0 139 -1 191 -27z"/>
<path d="M3320 7369 l0 -102 53 6 c41 5 58 13 80 37 29 32 35 76 16 112 -13
25 -68 48 -114 48 l-35 0 0 -101z"/>
<path d="M4360 7380 l0 -90 53 0 c28 0 63 6 77 13 49 25 52 96 5 143 -20 20
-34 24 -80 24 l-55 0 0 -90z"/>
<path d="M5711 7317 c-19 -56 -36 -108 -38 -114 -4 -10 13 -13 67 -13 60 0 71
3 66 15 -3 8 -17 59 -32 113 -14 53 -27 98 -28 99 -1 1 -17 -44 -35 -100z"/>
<path d="M6240 7380 l0 -90 60 0 c51 0 65 4 85 25 27 26 33 72 14 107 -14 26
-68 48 -119 48 l-40 0 0 -90z"/>
<path d="M2020 4385 l0 -1845 -97 0 c-188 0 -205 -16 -211 -189 -5 -132 7
-193 42 -216 20 -13 405 -15 3370 -13 l3348 3 24 28 c23 27 24 34 24 177 0
142 -1 150 -24 176 -23 27 -27 28 -150 32 l-126 4 0 1844 0 1844 -3100 0
-3100 0 0 -1845z m1790 -500 l0 -1355 -535 0 -535 0 0 1343 c0 1031 3 1346 12
1355 9 9 142 12 535 12 l523 0 0 -1355z m1267 1325 c10 -20 12 -297 10 -1350
l-2 -1325 -535 0 -535 0 -3 1353 -2 1352 527 -2 527 -3 13 -25z m777 -430 c33
-12 47 -43 82 -182 l28 -118 874 -2 874 -3 24 -28 c13 -15 24 -40 24 -54 0
-49 -244 -965 -266 -999 -9 -13 -21 -24 -28 -24 -6 0 -284 0 -618 0 -335 0
-608 -2 -608 -6 0 -8 39 -164 50 -199 l10 -30 471 3 471 3 53 -25 c65 -29 134
-98 167 -163 32 -66 32 -179 0 -240 -52 -100 -139 -154 -250 -156 -152 -3
-263 99 -279 259 -5 47 4 108 23 158 6 14 -13 16 -185 16 l-192 0 25 -33 c24
-31 26 -42 26 -131 0 -76 -4 -105 -19 -134 -26 -49 -66 -87 -121 -111 -118
-52 -219 -33 -311 59 -47 46 -58 65 -68 108 -20 94 -14 152 21 222 l31 63
-172 691 c-95 380 -186 742 -203 804 l-30 112 -107 1 c-154 1 -192 8 -210 41
-19 34 -6 77 29 95 30 15 345 18 384 3z"/>
<path d="M6010 4320 c0 -10 40 -175 71 -292 l10 -38 181 0 181 0 -7 163 c-4
89 -8 163 -9 163 -1 1 -98 5 -214 9 -159 5 -213 4 -213 -5z"/>
<path d="M7193 4323 c-41 -4 -42 -5 -47 -46 -3 -23 -7 -97 -10 -164 l-6 -123
183 0 182 0 39 153 c22 83 41 160 44 170 4 16 -8 17 -169 15 -96 -1 -193 -3
-216 -5z"/>
<path d="M6609 4316 c-2 -2 -1 -55 3 -118 3 -62 7 -134 7 -160 l1 -48 180 0
180 0 0 134 c0 73 3 148 6 165 l7 31 -190 0 c-104 0 -192 -2 -194 -4z"/>
<path d="M6131 3800 c6 -16 25 -85 42 -152 l32 -123 138 -3 139 -3 -6 93 c-4
51 -9 121 -12 156 l-6 62 -168 0 -169 0 10 -30z"/>
<path d="M6630 3767 c0 -35 3 -105 6 -155 l7 -92 148 0 c81 0 150 3 152 8 3 4
8 73 12 155 l8 147 -167 0 -166 0 0 -63z"/>
<path d="M7117 3748 c-4 -46 -7 -116 -7 -156 l0 -73 132 3 131 3 38 145 c21
80 38 148 39 153 0 4 -74 7 -164 7 l-163 0 -6 -82z"/>
<path d="M6315 2949 c-90 -79 -62 -224 46 -236 41 -5 50 -2 82 27 35 30 37 35
37 92 0 58 -2 62 -44 104 -24 24 -53 44 -64 44 -12 0 -37 -14 -57 -31z"/>
<path d="M7164 2961 c-50 -30 -64 -58 -64 -124 0 -54 3 -62 34 -93 111 -111
261 69 154 184 -22 23 -69 52 -85 52 -4 0 -22 -9 -39 -19z"/>
</g>
</svg>
