<?xml version="1.0" standalone="no"?>
<!DOCTYPE svg PUBLIC "-//W3C//DTD SVG 20010904//EN"
 "http://www.w3.org/TR/2001/REC-SVG-20010904/DTD/svg10.dtd">
<svg version="1.0" xmlns="http://www.w3.org/2000/svg"
 width="1024.000000pt" height="1024.000000pt" viewBox="0 0 1024.000000 1024.000000"
 preserveAspectRatio="xMidYMid meet">

<g transform="translate(0.000000,1024.000000) scale(0.100000,-0.100000)"
fill="#000000" stroke="none">
<path d="M2883 8850 c-235 -62 -429 -264 -479 -502 -34 -157 4 -351 94 -489
64 -98 146 -170 257 -225 240 -119 500 -91 710 76 100 80 167 177 211 305 22
67 26 97 26 185 0 207 -55 344 -191 480 -96 95 -186 147 -301 174 -89 21 -238
19 -327 -4z"/>
<path d="M4000 8385 c-87 -39 -140 -129 -140 -236 0 -80 0 -79 118 -359 52
-124 105 -254 118 -290 l22 -65 -956 -5 c-854 -5 -962 -7 -1004 -22 -121 -41
-194 -111 -264 -251 -41 -80 -284 -623 -348 -774 -14 -34 -89 -203 -165 -376
-225 -506 -234 -532 -206 -639 41 -162 201 -254 353 -204 96 32 124 71 246
346 149 334 295 635 347 715 l44 66 5 -2083 5 -2083 28 -57 c43 -88 107 -152
195 -195 70 -35 83 -38 157 -37 64 0 91 6 138 27 80 36 168 122 203 200 l29
62 7 485 c4 267 11 825 15 1241 8 725 9 758 27 778 23 25 91 30 100 6 3 -8 10
-563 16 -1232 12 -1332 10 -1290 71 -1385 84 -130 244 -208 372 -181 83 17
147 52 207 113 61 60 100 132 108 197 4 40 7 43 41 49 96 16 274 65 343 93 43
18 115 55 160 82 359 216 586 546 663 964 l22 120 90 3 90 3 13 -58 c17 -81
42 -124 96 -172 86 -75 188 -88 299 -37 71 32 120 78 151 142 23 47 26 63 22
122 -3 41 -13 84 -27 110 l-22 43 95 112 c52 62 192 225 311 362 119 138 265
306 324 374 58 69 180 210 271 315 91 105 194 226 230 268 l65 76 42 -120 c64
-179 64 -162 -4 -197 -170 -85 -374 -255 -483 -402 -303 -408 -354 -1022 -124
-1482 185 -368 523 -625 944 -718 87 -20 134 -24 280 -24 195 0 258 9 419 61
458 149 807 533 913 1005 20 93 23 129 23 334 0 214 -2 238 -27 340 -88 368
-339 692 -679 879 -96 53 -212 92 -353 121 -147 30 -382 34 -531 10 -49 -8
-90 -13 -91 -12 -1 1 -18 54 -39 117 -34 103 -116 339 -296 853 l-59 167 210
0 c226 0 252 -5 276 -51 20 -40 18 -71 -12 -141 -30 -71 -27 -112 11 -155 20
-24 31 -28 77 -28 71 0 116 33 155 112 24 51 28 69 28 149 0 84 -2 95 -38 167
-44 89 -103 144 -189 174 -48 16 -89 18 -406 18 l-354 0 -24 -28 c-44 -51 -38
-79 105 -481 45 -126 80 -230 79 -231 -2 -2 -451 -4 -998 -6 l-994 -4 -28 75
c-15 41 -28 76 -28 77 0 1 39 4 88 6 105 6 317 60 349 90 46 42 38 118 -17
159 -32 23 -139 36 -410 49 -113 5 -248 15 -300 23 -52 8 -159 15 -238 15
-139 1 -144 0 -167 -24 -29 -28 -34 -94 -10 -135 8 -14 14 -37 15 -52 0 -42
31 -62 148 -97 59 -18 151 -46 204 -63 l97 -30 40 -105 c66 -171 69 -155 -44
-329 -54 -82 -129 -196 -166 -254 -38 -58 -74 -113 -81 -123 -12 -18 -18 -16
-108 27 -91 44 -300 106 -359 106 -14 0 -31 4 -36 8 -11 8 -1 1760 11 1771 3
3 148 9 322 12 327 7 368 12 457 56 44 22 104 82 127 127 26 50 34 141 19 203
-7 26 -72 183 -145 348 -73 165 -179 404 -235 531 -56 127 -113 249 -127 271
-15 22 -48 54 -75 73 -45 30 -58 34 -132 37 -59 2 -92 -1 -117 -12z m2910
-3083 c0 -9 -1311 -1525 -1315 -1520 -5 5 -151 387 -222 578 -35 96 -127 342
-204 546 -76 205 -139 377 -139 383 0 6 37 11 98 13 122 4 1782 4 1782 0z
m-1971 -470 c51 -141 131 -356 176 -477 147 -388 245 -653 245 -664 0 -7 -49
-11 -145 -11 -109 0 -145 3 -145 13 -1 44 -32 235 -50 299 -59 225 -182 432
-357 606 l-84 83 26 47 c35 62 229 360 235 361 3 1 47 -115 99 -257z m-885
-158 c43 -13 152 -58 173 -71 l22 -15 -31 -51 c-75 -123 -331 -517 -340 -523
-7 -5 -8 101 -3 337 4 189 9 347 11 350 4 6 121 -13 168 -27z m3821 15 c136
-17 228 -44 350 -103 236 -114 390 -265 507 -501 86 -171 118 -308 118 -500 0
-127 -27 -308 -61 -406 -92 -270 -306 -513 -564 -642 -63 -31 -220 -81 -305
-98 -90 -17 -300 -17 -385 0 -236 47 -490 191 -628 356 -173 207 -256 405
-277 662 -31 388 118 747 407 980 67 54 220 149 228 142 3 -4 365 -1078 365
-1085 0 -3 15 -13 33 -24 85 -52 187 4 187 103 0 18 -22 101 -49 183 -46 143
-292 861 -306 895 -5 14 6 18 77 28 180 24 189 24 303 10z m-3240 -465 c91
-134 136 -249 166 -423 10 -63 18 -115 17 -116 -2 -2 -202 -5 -446 -7 l-442
-5 17 27 c10 15 52 79 93 144 41 65 118 184 170 264 53 81 125 194 160 251
l65 104 73 -79 c40 -44 97 -115 127 -160z m160 -841 c-21 -201 -110 -392 -265
-572 -89 -104 -206 -193 -335 -256 -98 -48 -269 -105 -317 -105 -17 0 -18 30
-18 500 l0 500 471 0 471 0 -7 -67z"/>
</g>
</svg>
